<svg viewBox="0 0 104 104" fill="none" xmlns="http://www.w3.org/2000/svg">
  <path d="M21.390018414306642,-0.3883648731235504C22.11681841430664,-0.39358057312355044,22.84361841430664,-0.3987962731235504,23.59241841430664,-0.40417003312355043C25.97961841430664,-0.4172027231235504,28.36621841430664,-0.4086199831235504,30.75351841430664,-0.3985382731235504C32.42131841430664,-0.4005450731235504,34.08911841430664,-0.40343515312355044,35.75691841430664,-0.4071675731235504C39.24631841430664,-0.4115475661235504,42.73551841430664,-0.4052032231235504,46.22491841430664,-0.39127157312355043C50.68871841430664,-0.3743141731235504,55.15201841430664,-0.38408277312355044,59.61581841430664,-0.4019048531235504C63.05791841430664,-0.4126807831235504,66.49991841430663,-0.4092277531235504,69.94211841430663,-0.40152448312355044C71.58761841430665,-0.3995445731235504,73.23311841430665,-0.4019556631235504,74.87861841430664,-0.4089047731235504C77.18181841430665,-0.41649782312355044,79.48421841430664,-0.4048937731235504,81.78731841430664,-0.3883648731235504C83.09571841430665,-0.3859967731235504,84.40411841430664,-0.3836287731235504,85.75211841430664,-0.38118897312355043C92.11221841430664,0.2981760268764496,96.09651841430664,3.1601580268764495,100.20371841430664,7.93399802687645C102.99071841430664,12.56941802687645,103.55571841430664,16.01061802687645,103.56571841430664,21.39001802687645C103.57071841430664,22.116818026876448,103.57671841430664,22.84361802687645,103.58171841430664,23.592418026876448C103.59471841430664,25.979618026876448,103.58571841430664,28.36621802687645,103.57571841430664,30.75351802687645C103.57771841430664,32.42131802687645,103.58071841430665,34.08911802687645,103.58471841430664,35.75691802687645C103.58871841430664,39.24631802687645,103.58271841430664,42.73551802687645,103.56871841430664,46.22491802687645C103.55171841430663,50.68871802687645,103.56171841430664,55.15201802687645,103.57971841430664,59.61581802687645C103.58971841430665,63.05791802687645,103.58671841430665,66.49991802687644,103.57871841430664,69.94211802687644C103.57671841430664,71.58761802687646,103.57971841430664,73.23311802687645,103.58671841430665,74.87861802687645C103.59371841430664,77.18181802687646,103.58271841430664,79.48421802687645,103.56571841430664,81.78731802687645C103.56371841430663,83.09571802687645,103.56071841430663,84.40411802687645,103.55871841430664,85.75211802687645C102.87971841430664,92.11221802687645,100.01771841430664,96.09651802687645,95.24341841430665,100.20371802687644C90.60801841430664,102.99071802687645,87.16681841430665,103.55571802687645,81.78731841430664,103.56571802687645C80.69721841430665,103.57371802687645,80.69721841430665,103.57371802687645,79.58501841430665,103.58171802687644C77.19781841430664,103.59471802687645,74.81121841430664,103.58571802687645,72.42391841430664,103.57571802687644C70.75611841430664,103.57771802687645,69.08831841430664,103.58071802687645,67.42051841430664,103.58471802687644C63.93111841430664,103.58871802687645,60.44191841430664,103.58271802687645,56.95251841430664,103.56871802687645C52.48871841430664,103.55171802687644,48.02541841430664,103.56171802687645,43.56161841430664,103.57971802687645C40.11951841430664,103.58971802687645,36.67751841430664,103.58671802687645,33.23531841430664,103.57871802687644C31.58981841430664,103.57671802687645,29.94431841430664,103.57971802687645,28.29881841430664,103.58671802687645C25.99561841430664,103.59371802687645,23.693218414306642,103.58271802687645,21.390018414306642,103.56571802687645C20.08171841430664,103.56371802687644,18.77331841430664,103.56071802687644,17.42531841430664,103.55871802687645C11.06521841430664,102.87971802687645,7.08095841430664,100.01771802687645,2.9732284143066408,95.24341802687645C0.1867034143066406,90.60801802687645,-0.3786285856933594,87.16681802687646,-0.38836488569335936,81.78731802687645C-0.3935802856933594,81.06061802687645,-0.3987956856933594,80.33381802687644,-0.40417001569335936,79.58501802687645C-0.41720284569335936,77.19781802687645,-0.40862089569335935,74.81121802687645,-0.39853828569335936,72.42391802687645C-0.40054418569335937,70.75611802687645,-0.40343577569335937,69.08831802687645,-0.4071675456933594,67.42051802687645C-0.4115484116933594,63.93111802687645,-0.40520325569335935,60.44191802687645,-0.3912715856933594,56.95251802687645C-0.3743138856933594,52.48871802687645,-0.3840823856933594,48.02541802687645,-0.4019048356933594,43.56161802687645C-0.41268005569335936,40.11951802687645,-0.40922835569335936,36.67751802687645,-0.40152446569335937,33.23531802687645C-0.3995450856933594,31.58981802687645,-0.40195593569335936,29.94431802687645,-0.4089047556933594,28.29881802687645C-0.41649698569335936,25.99561802687645,-0.4048929056933594,23.69321802687645,-0.38836488569335936,21.39001802687645C-0.3859974856933594,20.081718026876448,-0.3836281856933594,18.77331802687645,-0.38118898569335935,17.42531802687645C0.29817641430664066,11.06521802687645,3.1601484143066405,7.080958026876449,7.933998414306641,2.9732280268764497C12.569418414306641,0.18670302687644957,16.01061841430664,-0.3786284731235504,21.390018414306642,-0.3883648731235504Z" fill="#020202" fillOpacity="1" />
  <path d="M47.00000125,41.86718707192383C47.80437125,41.86589797192383,48.60875125,41.86460887192383,49.43750125,41.863280771923826C50.28312125,41.86714797192383,51.12875125,41.87101517192383,51.99998125,41.87499957192383C53.26848125,41.86919877192383,53.26848125,41.86919877192383,54.56248125,41.863280771923826C55.36688125,41.86456987192383,56.17128125,41.86585887192383,56.99998125,41.86718707192383C57.74248125,41.86831497192383,58.484981250000004,41.86944287192383,59.249981250000005,41.870604971923825C60.999981250000005,41.99999947192383,60.999981250000005,41.99999947192383,61.999981250000005,43.00000247192383C62.09838125,44.33043247192383,62.13078125,45.66593247192383,62.13278125,47.00000247192383C62.13478125,48.20656247192383,62.13478125,48.20656247192383,62.136681249999995,49.43750247192383C62.13288125,50.28312247192383,62.128981249999995,51.12875247192383,62.124981250000005,51.99995247192383C62.13078125,53.26845247192383,62.13078125,53.26845247192383,62.136681249999995,54.56245247192383C62.135381249999995,55.36685247192383,62.13418125,56.17125247192383,62.13278125,56.99995247192383C62.13168125,57.742452471923826,62.13058125,58.48495247192383,62.12938125,59.24995247192383C61.999981250000005,60.99995247192383,61.999981250000005,60.99995247192383,60.999981250000005,61.99995247192383C59.66958125,62.09835247192383,58.33408125,62.13075247192383,56.99998125,62.132852471923826C56.195581250000004,62.13405247192382,55.39128125,62.135352471923824,54.56248125,62.13675247192383C53.71688125,62.132852471923826,52.871281249999996,62.128952471923824,51.99998125,62.12495247192383C51.15437125,62.12885247192383,50.30875125,62.13275247192383,49.43750125,62.13675247192383C48.63312125,62.13545247192383,47.828751249999996,62.13415247192383,47.00000125,62.132852471923826C46.25750125,62.13165247192383,45.51500125,62.13055247192383,44.75000125,62.12935247192382C43.00000125,61.99995247192383,43.00000125,61.99995247192383,42.00000025,60.99995247192383C41.90162805,59.66955247192383,41.86921406,58.334052471923826,41.8671875,56.99995247192383C41.86589861,56.19565247192383,41.86460924,55.39125247192383,41.86328125,54.56245247192383C41.8671484,53.71685247192383,41.87101555,52.871252471923825,41.87500005,51.99995247192383C41.87113285,51.15437247192383,41.8672657,50.308752471923825,41.86328125,49.43750247192383C41.86457014,48.633122471923826,41.86585951,47.82875247192383,41.8671875,47.00000247192383C41.86831522,46.25750247192383,41.86944342,45.51500247192383,41.87060547,44.75000247192383C42.12295925,41.33703247192383,44.05334125,41.87166327192383,47.00000125,41.86718707192383Z" fill="#F6F6F6" fillOpacity="1" />
  <path d="M62,62C68.27,62,74.53999999999999,62,81,62C81,68.27,81,74.53999999999999,81,81C74.73,81,68.46,81,62,81C62,74.73,62,68.46,62,62Z" fill="#FEFEFE" fillOpacity="1" />
  <path d="M23,62C29.27,62,35.54,62,42,62C42,68.27,42,74.53999999999999,42,81C35.730000000000004,81,29.46,81,23,81C23,74.73,23,68.46,23,62Z" fill="#FEFEFE" fillOpacity="1" />
  <path d="M62,23C68.27,23,74.53999999999999,23,81,23C81,29.27,81,35.54,81,42C74.73,42,68.46,42,62,42C62,35.730000000000004,62,29.46,62,23Z" fill="#FEFEFE" fillOpacity="1" />
  <path d="M23,23C29.27,23,35.54,23,42,23C42,29.27,42,35.54,42,42C35.730000000000004,42,29.46,42,23,42C23,35.730000000000004,23,29.46,23,23Z" fill="#FFFFFF" fillOpacity="1" />
</svg>