<svg viewBox="0 0 120 120" fill="none" xmlns="http://www.w3.org/2000/svg">
  <rect x="0" y="0" width="120" height="120" rx="36" fill="#2880FD" fillOpacity="1" />
  <path d="M95.00004635009765,31.999999826660158C101.14944635009766,36.009119826660154,105.17444635009765,40.834559826660154,107.00004635009765,47.99995982666016C108.01364635009766,55.306959826660155,107.21514635009765,61.84025982666016,103.00004635009765,67.99995982666016C98.79014635009766,72.63325982666015,94.35064635009766,76.96315982666016,88.00004635009765,77.99995982666016C84.65854635009765,78.13105982666016,81.34144635009766,78.11885982666016,78.00004635009765,77.99995982666016C78.01164635009766,78.69865982666016,78.02324635009765,79.39735982666016,78.03514635009765,80.11715982666016C78.04414635009766,81.02725982666016,78.05324635009765,81.93735982666016,78.06254635009765,82.87495982666016C78.07414635009766,83.77995982666016,78.08574635009765,84.68485982666016,78.09764635009765,85.61715982666016C78.00004635009765,87.99995982666016,78.00004635009765,87.99995982666016,77.00004635009765,89.99995982666016C71.06004635009765,89.99995982666016,65.11999635009765,89.99995982666016,58.99999635009765,89.99995982666016C57.427265350097656,86.85455982666016,57.81592135009765,83.48205982666016,57.79687535009766,80.02735982666016C57.788326350097655,78.83175982666015,57.788326350097655,78.83175982666015,57.77960205009766,77.61195982666015C57.77014545009766,75.91975982666015,57.76361465009766,74.22755982666015,57.759765650097656,72.53535982666016C57.750129650097655,69.97185982666016,57.719142950097655,67.40905982666015,57.68750000009766,64.84565982666015C57.61464695009766,53.770359826660155,58.028167350097654,44.772259826660154,65.25390635009765,35.72655982666016C73.30364635009765,27.766899826660158,85.17024635009766,27.254039826660158,95.00004635009765,31.999999826660158ZM78.00004635009765,50.99995982666016C77.41644635009766,53.457059826660156,77.41644635009766,53.457059826660156,78.00004635009765,55.99995982666016C80.16074635009765,58.07975982666015,80.16074635009765,58.07975982666015,83.00004635009765,58.99995982666016C85.33334635009766,58.66665982666015,85.33334635009766,58.66665982666015,87.00004635009765,56.99995982666016C88.08024635009765,54.59885982666016,88.08024635009765,54.59885982666016,88.00004635009765,51.99995982666016C86.98034635009765,50.06345982666016,86.98034635009765,50.06345982666016,85.00004635009765,48.99995982666016C81.51774635009765,48.57535982666016,80.53494635009766,48.46505982666015,78.00004635009765,50.99995982666016Z" fill="#FFFFFF" fillOpacity="1" />
  <path d="M23.113243750000002,28.79687544921875C23.91984375,28.79117444921875,24.72644375,28.78547444921875,25.557443749999997,28.77960244921875C27.26634375,28.77014844921875,28.97534375,28.76361644921875,30.68434375,28.75976544921875C33.29184375,28.75007644921875,35.89854375,28.71906504921875,38.50584375,28.68750004921875C40.16664375,28.68096814921875,41.82744375,28.67571834921875,43.488243749999995,28.67187504921875C44.26554375,28.65952814921875,45.04274375,28.64718144921875,45.84354375,28.63446044921875C50.41764375,28.65316394921875,53.38924375,29.12416444921875,57.00004375,32.00000044921875C59.33904375,35.50864044921875,59.41294375,36.87089044921875,59.00004375,40.99996044921875C56.73534375,45.63236044921875,56.73534375,45.63236044921875,54.00004375,46.99996044921875C52.45974375,47.06946044921875,50.91664375,47.08456044921875,49.37504375,47.06246044921875C48.14914375,47.048960449218754,48.14914375,47.048960449218754,46.89844375,47.03516044921875C46.27194375,47.02356044921875,45.64544375,47.01196044921875,45.00004375,46.99996044921875C45.00524375,48.26706044921875,45.01044375,49.534160449218746,45.01584375,50.83956044921875C45.03394375,55.522860449218754,45.04544375,60.20616044921875,45.05494375,64.88936044921874C45.05994375,66.91966044921875,45.06684375,68.94996044921875,45.07544375,70.98026044921875C45.08754375,73.89176044921875,45.09324375,76.80326044921875,45.09764375,79.71486044921875C45.10284375,80.62836044921875,45.10794375,81.54196044921875,45.11334375,82.48316044921876C45.11344375,84.65576044921875,45.06214375,86.82826044921876,45.00004375,88.99996044921875C44.670043750000005,89.32996044921876,44.34004375,89.65996044921874,44.00004375,89.99996044921875C38.390043750000004,89.99996044921875,32.780043750000004,89.99996044921875,27.00004375,89.99996044921875C27.00004375,75.80996044921875,27.00004375,61.61996044921875,27.00004375,46.99996044921875C22.71000375,46.99996044921875,18.42000375,46.99996044921875,14.00000375,46.99996044921875C12.99999995,45.99996044921875,12.99999995,45.99996044921875,12.90234375,42.40236044921875C12.90901756,40.91406044921875,12.92097855,39.42576044921875,12.93749995,37.937500449218746C12.94201185,37.17889044921875,12.94652365,36.42027044921875,12.95117185,35.63867044921875C12.96299365,33.75908044921875,12.98092935,31.87953044921875,12.99999995,30.00000044921875C16.18013375,28.40993444921875,19.61970375,28.81582944921875,23.113243750000002,28.79687544921875Z" fill="#FFFFFF" fillOpacity="1" />
  <path d="M77,55C82,58,82,58,82.56763,60.17651C82.54144,60.998689999999996,82.51526,61.82087,82.48828,62.66797C82.47217,63.56064,82.45605,64.45332,82.43945,65.373C82.39756,66.3018,82.35566,67.2306,82.3125,68.1875C82.27866,69.5981,82.27866,69.5981,82.24414,71.0371C82.18519,73.3597,82.10298,75.679,82,78C80.35,77.67,78.7,77.34,77,77C77,69.74,77,62.480000000000004,77,55Z" fill="#4D95FE" fillOpacity="0.4" />
</svg>