<?xml version="1.0" standalone="no"?><!DOCTYPE svg PUBLIC "-//W3C//DTD SVG 1.1//EN" "http://www.w3.org/Graphics/SVG/1.1/DTD/svg11.dtd"><svg t="1596124088135" class="icon" viewBox="0 0 1024 1024" version="1.1" xmlns="http://www.w3.org/2000/svg" p-id="13102" width="16" height="16" xmlns:xlink="http://www.w3.org/1999/xlink"><defs><style type="text/css"></style></defs><path d="M845.75 233.87h-83.43l-27.82-55.62c-16.39-32.36-24.9-55.63-55.63-55.63H345.13c-30.72 0-40.88 26.54-55.63 55.63l-27.81 55.62h-83.44A111.25 111.25 0 0 0 67 345.12v445a111.25 111.25 0 0 0 111.25 111.26h667.5A111.25 111.25 0 0 0 957 790.12v-445a111.25 111.25 0 0 0-111.25-111.25z m55.62 556.25a55.63 55.63 0 0 1-55.62 55.63h-667.5a55.63 55.63 0 0 1-55.62-55.63v-445a55.63 55.63 0 0 1 55.62-55.62H289.5l27.81-55.63c19.66-32.36 24.9-55.62 55.62-55.62h278.13c30.72 0 36 23.26 55.63 55.62l27.81 55.63h111.25a55.62 55.62 0 0 1 55.62 55.62zM512 345.12c-122.88 0-222.5 99.62-222.5 222.5s99.62 222.5 222.5 222.5 222.5-99.62 222.5-222.5-99.62-222.5-222.5-222.5z m0 389.38a166.88 166.88 0 1 1 166.87-166.88A166.87 166.87 0 0 1 512 734.5z" p-id="13103"></path></svg>