<?xml version="1.0" standalone="no"?><!DOCTYPE svg PUBLIC "-//W3C//DTD SVG 1.1//EN" "http://www.w3.org/Graphics/SVG/1.1/DTD/svg11.dtd"><svg t="1596103762472" class="icon" viewBox="0 0 1024 1024" version="1.1" xmlns="http://www.w3.org/2000/svg" p-id="3464" width="14" height="14" xmlns:xlink="http://www.w3.org/1999/xlink"><defs><style type="text/css"></style></defs><path d="M512 106.666667A405.333333 405.333333 0 1 1 106.666667 512 405.333333 405.333333 0 0 1 512 106.666667m0-64a469.333333 469.333333 0 1 0 469.333333 469.333333A469.333333 469.333333 0 0 0 512 42.666667z" p-id="3465"></path><path d="M512 106.666667A405.333333 405.333333 0 1 1 106.666667 512 405.333333 405.333333 0 0 1 512 106.666667m0-64a469.333333 469.333333 0 1 0 469.333333 469.333333A469.333333 469.333333 0 0 0 512 42.666667z" p-id="3466"></path></svg>